<mxfile host="app.diagrams.net" agent="Mozilla/5.0 (Windows NT 10.0; Win64; x64) AppleWebKit/537.36 (KHTML, like Gecko) Chrome/139.0.0.0 Safari/537.36" version="28.1.0">
  <diagram name="Page-1" id="Az9o8Se37fj7UTeMyXYu">
    <mxGraphModel dx="1042" dy="535" grid="0" gridSize="10" guides="1" tooltips="1" connect="1" arrows="1" fold="1" page="1" pageScale="1" pageWidth="850" pageHeight="1100" background="light-dark(#FFFFFF,#12020B)" math="0" shadow="0">
      <root>
        <mxCell id="0" />
        <mxCell id="1" parent="0" />
        <mxCell id="lRlk0zMDoxLpAcyGvHk4-14" value="Fact_Sales" style="shape=table;startSize=30;container=1;collapsible=1;childLayout=tableLayout;fixedRows=1;rowLines=0;fontStyle=1;align=center;resizeLast=1;html=1;labelBackgroundColor=none;fillColor=#B1DDF0;strokeColor=#BAC8D3;fontColor=#182E3E;" vertex="1" parent="1">
          <mxGeometry x="327" y="40" width="256" height="363" as="geometry" />
        </mxCell>
        <mxCell id="lRlk0zMDoxLpAcyGvHk4-15" value="" style="shape=tableRow;horizontal=0;startSize=0;swimlaneHead=0;swimlaneBody=0;fillColor=none;collapsible=0;dropTarget=0;points=[[0,0.5],[1,0.5]];portConstraint=eastwest;top=0;left=0;right=0;bottom=1;labelBackgroundColor=none;strokeColor=#BAC8D3;fontColor=#182E3E;" vertex="1" parent="lRlk0zMDoxLpAcyGvHk4-14">
          <mxGeometry y="30" width="256" height="30" as="geometry" />
        </mxCell>
        <mxCell id="lRlk0zMDoxLpAcyGvHk4-16" value="PK" style="shape=partialRectangle;connectable=0;fillColor=none;top=0;left=0;bottom=0;right=0;fontStyle=1;overflow=hidden;whiteSpace=wrap;html=1;labelBackgroundColor=none;strokeColor=#BAC8D3;fontColor=#182E3E;" vertex="1" parent="lRlk0zMDoxLpAcyGvHk4-15">
          <mxGeometry width="30" height="30" as="geometry">
            <mxRectangle width="30" height="30" as="alternateBounds" />
          </mxGeometry>
        </mxCell>
        <mxCell id="lRlk0zMDoxLpAcyGvHk4-17" value="sales_id" style="shape=partialRectangle;connectable=0;fillColor=none;top=0;left=0;bottom=0;right=0;align=left;spacingLeft=6;fontStyle=5;overflow=hidden;whiteSpace=wrap;html=1;labelBackgroundColor=none;strokeColor=#BAC8D3;fontColor=#182E3E;" vertex="1" parent="lRlk0zMDoxLpAcyGvHk4-15">
          <mxGeometry x="30" width="226" height="30" as="geometry">
            <mxRectangle width="226" height="30" as="alternateBounds" />
          </mxGeometry>
        </mxCell>
        <mxCell id="lRlk0zMDoxLpAcyGvHk4-18" value="" style="shape=tableRow;horizontal=0;startSize=0;swimlaneHead=0;swimlaneBody=0;fillColor=none;collapsible=0;dropTarget=0;points=[[0,0.5],[1,0.5]];portConstraint=eastwest;top=0;left=0;right=0;bottom=0;labelBackgroundColor=none;strokeColor=#BAC8D3;fontColor=#182E3E;" vertex="1" parent="lRlk0zMDoxLpAcyGvHk4-14">
          <mxGeometry y="60" width="256" height="30" as="geometry" />
        </mxCell>
        <mxCell id="lRlk0zMDoxLpAcyGvHk4-19" value="FK" style="shape=partialRectangle;connectable=0;fillColor=none;top=0;left=0;bottom=0;right=0;editable=1;overflow=hidden;whiteSpace=wrap;html=1;labelBackgroundColor=none;strokeColor=#BAC8D3;fontColor=#182E3E;" vertex="1" parent="lRlk0zMDoxLpAcyGvHk4-18">
          <mxGeometry width="30" height="30" as="geometry">
            <mxRectangle width="30" height="30" as="alternateBounds" />
          </mxGeometry>
        </mxCell>
        <mxCell id="lRlk0zMDoxLpAcyGvHk4-20" value="game_id" style="shape=partialRectangle;connectable=0;fillColor=none;top=0;left=0;bottom=0;right=0;align=left;spacingLeft=6;overflow=hidden;whiteSpace=wrap;html=1;labelBackgroundColor=none;strokeColor=#BAC8D3;fontColor=#182E3E;" vertex="1" parent="lRlk0zMDoxLpAcyGvHk4-18">
          <mxGeometry x="30" width="226" height="30" as="geometry">
            <mxRectangle width="226" height="30" as="alternateBounds" />
          </mxGeometry>
        </mxCell>
        <mxCell id="lRlk0zMDoxLpAcyGvHk4-21" value="" style="shape=tableRow;horizontal=0;startSize=0;swimlaneHead=0;swimlaneBody=0;fillColor=none;collapsible=0;dropTarget=0;points=[[0,0.5],[1,0.5]];portConstraint=eastwest;top=0;left=0;right=0;bottom=0;labelBackgroundColor=none;strokeColor=#BAC8D3;fontColor=#182E3E;" vertex="1" parent="lRlk0zMDoxLpAcyGvHk4-14">
          <mxGeometry y="90" width="256" height="30" as="geometry" />
        </mxCell>
        <mxCell id="lRlk0zMDoxLpAcyGvHk4-22" value="FK" style="shape=partialRectangle;connectable=0;fillColor=none;top=0;left=0;bottom=0;right=0;editable=1;overflow=hidden;whiteSpace=wrap;html=1;labelBackgroundColor=none;strokeColor=#BAC8D3;fontColor=#182E3E;" vertex="1" parent="lRlk0zMDoxLpAcyGvHk4-21">
          <mxGeometry width="30" height="30" as="geometry">
            <mxRectangle width="30" height="30" as="alternateBounds" />
          </mxGeometry>
        </mxCell>
        <mxCell id="lRlk0zMDoxLpAcyGvHk4-23" value="platform_id" style="shape=partialRectangle;connectable=0;fillColor=none;top=0;left=0;bottom=0;right=0;align=left;spacingLeft=6;overflow=hidden;whiteSpace=wrap;html=1;labelBackgroundColor=none;strokeColor=#BAC8D3;fontColor=#182E3E;" vertex="1" parent="lRlk0zMDoxLpAcyGvHk4-21">
          <mxGeometry x="30" width="226" height="30" as="geometry">
            <mxRectangle width="226" height="30" as="alternateBounds" />
          </mxGeometry>
        </mxCell>
        <mxCell id="lRlk0zMDoxLpAcyGvHk4-24" value="" style="shape=tableRow;horizontal=0;startSize=0;swimlaneHead=0;swimlaneBody=0;fillColor=none;collapsible=0;dropTarget=0;points=[[0,0.5],[1,0.5]];portConstraint=eastwest;top=0;left=0;right=0;bottom=0;labelBackgroundColor=none;strokeColor=#BAC8D3;fontColor=#182E3E;" vertex="1" parent="lRlk0zMDoxLpAcyGvHk4-14">
          <mxGeometry y="120" width="256" height="30" as="geometry" />
        </mxCell>
        <mxCell id="lRlk0zMDoxLpAcyGvHk4-25" value="FK" style="shape=partialRectangle;connectable=0;fillColor=none;top=0;left=0;bottom=0;right=0;editable=1;overflow=hidden;whiteSpace=wrap;html=1;labelBackgroundColor=none;strokeColor=#BAC8D3;fontColor=#182E3E;" vertex="1" parent="lRlk0zMDoxLpAcyGvHk4-24">
          <mxGeometry width="30" height="30" as="geometry">
            <mxRectangle width="30" height="30" as="alternateBounds" />
          </mxGeometry>
        </mxCell>
        <mxCell id="lRlk0zMDoxLpAcyGvHk4-26" value="year_id" style="shape=partialRectangle;connectable=0;fillColor=none;top=0;left=0;bottom=0;right=0;align=left;spacingLeft=6;overflow=hidden;whiteSpace=wrap;html=1;labelBackgroundColor=none;strokeColor=#BAC8D3;fontColor=#182E3E;" vertex="1" parent="lRlk0zMDoxLpAcyGvHk4-24">
          <mxGeometry x="30" width="226" height="30" as="geometry">
            <mxRectangle width="226" height="30" as="alternateBounds" />
          </mxGeometry>
        </mxCell>
        <mxCell id="lRlk0zMDoxLpAcyGvHk4-40" style="shape=tableRow;horizontal=0;startSize=0;swimlaneHead=0;swimlaneBody=0;fillColor=none;collapsible=0;dropTarget=0;points=[[0,0.5],[1,0.5]];portConstraint=eastwest;top=0;left=0;right=0;bottom=0;labelBackgroundColor=none;strokeColor=#BAC8D3;fontColor=#182E3E;" vertex="1" parent="lRlk0zMDoxLpAcyGvHk4-14">
          <mxGeometry y="150" width="256" height="30" as="geometry" />
        </mxCell>
        <mxCell id="lRlk0zMDoxLpAcyGvHk4-41" value="FK" style="shape=partialRectangle;connectable=0;fillColor=none;top=0;left=0;bottom=0;right=0;editable=1;overflow=hidden;whiteSpace=wrap;html=1;labelBackgroundColor=none;strokeColor=#BAC8D3;fontColor=#182E3E;" vertex="1" parent="lRlk0zMDoxLpAcyGvHk4-40">
          <mxGeometry width="30" height="30" as="geometry">
            <mxRectangle width="30" height="30" as="alternateBounds" />
          </mxGeometry>
        </mxCell>
        <mxCell id="lRlk0zMDoxLpAcyGvHk4-42" value="genre_id" style="shape=partialRectangle;connectable=0;fillColor=none;top=0;left=0;bottom=0;right=0;align=left;spacingLeft=6;overflow=hidden;whiteSpace=wrap;html=1;labelBackgroundColor=none;strokeColor=#BAC8D3;fontColor=#182E3E;" vertex="1" parent="lRlk0zMDoxLpAcyGvHk4-40">
          <mxGeometry x="30" width="226" height="30" as="geometry">
            <mxRectangle width="226" height="30" as="alternateBounds" />
          </mxGeometry>
        </mxCell>
        <mxCell id="lRlk0zMDoxLpAcyGvHk4-43" style="shape=tableRow;horizontal=0;startSize=0;swimlaneHead=0;swimlaneBody=0;fillColor=none;collapsible=0;dropTarget=0;points=[[0,0.5],[1,0.5]];portConstraint=eastwest;top=0;left=0;right=0;bottom=0;labelBackgroundColor=none;strokeColor=#BAC8D3;fontColor=#182E3E;" vertex="1" parent="lRlk0zMDoxLpAcyGvHk4-14">
          <mxGeometry y="180" width="256" height="30" as="geometry" />
        </mxCell>
        <mxCell id="lRlk0zMDoxLpAcyGvHk4-44" value="FK" style="shape=partialRectangle;connectable=0;fillColor=none;top=0;left=0;bottom=0;right=0;editable=1;overflow=hidden;whiteSpace=wrap;html=1;labelBackgroundColor=none;strokeColor=#BAC8D3;fontColor=#182E3E;" vertex="1" parent="lRlk0zMDoxLpAcyGvHk4-43">
          <mxGeometry width="30" height="30" as="geometry">
            <mxRectangle width="30" height="30" as="alternateBounds" />
          </mxGeometry>
        </mxCell>
        <mxCell id="lRlk0zMDoxLpAcyGvHk4-45" value="publisher_id" style="shape=partialRectangle;connectable=0;fillColor=none;top=0;left=0;bottom=0;right=0;align=left;spacingLeft=6;overflow=hidden;whiteSpace=wrap;html=1;labelBackgroundColor=none;strokeColor=#BAC8D3;fontColor=#182E3E;" vertex="1" parent="lRlk0zMDoxLpAcyGvHk4-43">
          <mxGeometry x="30" width="226" height="30" as="geometry">
            <mxRectangle width="226" height="30" as="alternateBounds" />
          </mxGeometry>
        </mxCell>
        <mxCell id="lRlk0zMDoxLpAcyGvHk4-46" style="shape=tableRow;horizontal=0;startSize=0;swimlaneHead=0;swimlaneBody=0;fillColor=none;collapsible=0;dropTarget=0;points=[[0,0.5],[1,0.5]];portConstraint=eastwest;top=0;left=0;right=0;bottom=0;labelBackgroundColor=none;strokeColor=#BAC8D3;fontColor=#182E3E;" vertex="1" parent="lRlk0zMDoxLpAcyGvHk4-14">
          <mxGeometry y="210" width="256" height="30" as="geometry" />
        </mxCell>
        <mxCell id="lRlk0zMDoxLpAcyGvHk4-47" style="shape=partialRectangle;connectable=0;fillColor=none;top=0;left=0;bottom=0;right=0;editable=1;overflow=hidden;whiteSpace=wrap;html=1;labelBackgroundColor=none;strokeColor=#BAC8D3;fontColor=#182E3E;" vertex="1" parent="lRlk0zMDoxLpAcyGvHk4-46">
          <mxGeometry width="30" height="30" as="geometry">
            <mxRectangle width="30" height="30" as="alternateBounds" />
          </mxGeometry>
        </mxCell>
        <mxCell id="lRlk0zMDoxLpAcyGvHk4-48" value="&lt;div style=&quot;font-family: Consolas, &amp;quot;Courier New&amp;quot;, monospace; font-size: 14px; line-height: 19px; white-space: pre;&quot;&gt;&lt;font style=&quot;color: light-dark(rgb(212, 212, 212), rgb(255, 255, 255));&quot;&gt;north_america_sales_million&lt;/font&gt;&lt;/div&gt;" style="shape=partialRectangle;connectable=0;fillColor=none;top=0;left=0;bottom=0;right=0;align=left;spacingLeft=6;overflow=hidden;whiteSpace=wrap;html=1;labelBackgroundColor=none;strokeColor=#BAC8D3;fontColor=#182E3E;" vertex="1" parent="lRlk0zMDoxLpAcyGvHk4-46">
          <mxGeometry x="30" width="226" height="30" as="geometry">
            <mxRectangle width="226" height="30" as="alternateBounds" />
          </mxGeometry>
        </mxCell>
        <mxCell id="lRlk0zMDoxLpAcyGvHk4-49" style="shape=tableRow;horizontal=0;startSize=0;swimlaneHead=0;swimlaneBody=0;fillColor=none;collapsible=0;dropTarget=0;points=[[0,0.5],[1,0.5]];portConstraint=eastwest;top=0;left=0;right=0;bottom=0;labelBackgroundColor=none;strokeColor=#BAC8D3;fontColor=#182E3E;" vertex="1" parent="lRlk0zMDoxLpAcyGvHk4-14">
          <mxGeometry y="240" width="256" height="30" as="geometry" />
        </mxCell>
        <mxCell id="lRlk0zMDoxLpAcyGvHk4-50" style="shape=partialRectangle;connectable=0;fillColor=none;top=0;left=0;bottom=0;right=0;editable=1;overflow=hidden;whiteSpace=wrap;html=1;labelBackgroundColor=none;strokeColor=#BAC8D3;fontColor=#182E3E;" vertex="1" parent="lRlk0zMDoxLpAcyGvHk4-49">
          <mxGeometry width="30" height="30" as="geometry">
            <mxRectangle width="30" height="30" as="alternateBounds" />
          </mxGeometry>
        </mxCell>
        <mxCell id="lRlk0zMDoxLpAcyGvHk4-51" value="&lt;div style=&quot;font-family: Consolas, &amp;quot;Courier New&amp;quot;, monospace; font-size: 14px; line-height: 19px; white-space: pre;&quot;&gt;&lt;font style=&quot;color: light-dark(rgb(212, 212, 212), rgb(255, 255, 255));&quot;&gt;europe_sales_million&lt;/font&gt;&lt;/div&gt;" style="shape=partialRectangle;connectable=0;fillColor=none;top=0;left=0;bottom=0;right=0;align=left;spacingLeft=6;overflow=hidden;whiteSpace=wrap;html=1;labelBackgroundColor=none;strokeColor=#BAC8D3;fontColor=#182E3E;" vertex="1" parent="lRlk0zMDoxLpAcyGvHk4-49">
          <mxGeometry x="30" width="226" height="30" as="geometry">
            <mxRectangle width="226" height="30" as="alternateBounds" />
          </mxGeometry>
        </mxCell>
        <mxCell id="lRlk0zMDoxLpAcyGvHk4-52" style="shape=tableRow;horizontal=0;startSize=0;swimlaneHead=0;swimlaneBody=0;fillColor=none;collapsible=0;dropTarget=0;points=[[0,0.5],[1,0.5]];portConstraint=eastwest;top=0;left=0;right=0;bottom=0;labelBackgroundColor=none;strokeColor=#BAC8D3;fontColor=#182E3E;" vertex="1" parent="lRlk0zMDoxLpAcyGvHk4-14">
          <mxGeometry y="270" width="256" height="30" as="geometry" />
        </mxCell>
        <mxCell id="lRlk0zMDoxLpAcyGvHk4-53" style="shape=partialRectangle;connectable=0;fillColor=none;top=0;left=0;bottom=0;right=0;editable=1;overflow=hidden;whiteSpace=wrap;html=1;labelBackgroundColor=none;strokeColor=#BAC8D3;fontColor=#182E3E;" vertex="1" parent="lRlk0zMDoxLpAcyGvHk4-52">
          <mxGeometry width="30" height="30" as="geometry">
            <mxRectangle width="30" height="30" as="alternateBounds" />
          </mxGeometry>
        </mxCell>
        <mxCell id="lRlk0zMDoxLpAcyGvHk4-54" value="&lt;div style=&quot;font-family: Consolas, &amp;quot;Courier New&amp;quot;, monospace; font-size: 14px; line-height: 19px; white-space: pre;&quot;&gt;&lt;font style=&quot;color: light-dark(rgb(212, 212, 212), rgb(255, 255, 255));&quot;&gt;japan_sales_million&lt;/font&gt;&lt;/div&gt;" style="shape=partialRectangle;connectable=0;fillColor=none;top=0;left=0;bottom=0;right=0;align=left;spacingLeft=6;overflow=hidden;whiteSpace=wrap;html=1;labelBackgroundColor=none;strokeColor=#BAC8D3;fontColor=#182E3E;" vertex="1" parent="lRlk0zMDoxLpAcyGvHk4-52">
          <mxGeometry x="30" width="226" height="30" as="geometry">
            <mxRectangle width="226" height="30" as="alternateBounds" />
          </mxGeometry>
        </mxCell>
        <mxCell id="lRlk0zMDoxLpAcyGvHk4-55" style="shape=tableRow;horizontal=0;startSize=0;swimlaneHead=0;swimlaneBody=0;fillColor=none;collapsible=0;dropTarget=0;points=[[0,0.5],[1,0.5]];portConstraint=eastwest;top=0;left=0;right=0;bottom=0;labelBackgroundColor=none;strokeColor=#BAC8D3;fontColor=#182E3E;" vertex="1" parent="lRlk0zMDoxLpAcyGvHk4-14">
          <mxGeometry y="300" width="256" height="30" as="geometry" />
        </mxCell>
        <mxCell id="lRlk0zMDoxLpAcyGvHk4-56" style="shape=partialRectangle;connectable=0;fillColor=none;top=0;left=0;bottom=0;right=0;editable=1;overflow=hidden;whiteSpace=wrap;html=1;labelBackgroundColor=none;strokeColor=#BAC8D3;fontColor=#182E3E;" vertex="1" parent="lRlk0zMDoxLpAcyGvHk4-55">
          <mxGeometry width="30" height="30" as="geometry">
            <mxRectangle width="30" height="30" as="alternateBounds" />
          </mxGeometry>
        </mxCell>
        <mxCell id="lRlk0zMDoxLpAcyGvHk4-57" value="&lt;div style=&quot;font-family: Consolas, &amp;quot;Courier New&amp;quot;, monospace; font-size: 14px; line-height: 19px; white-space: pre;&quot;&gt;&lt;font style=&quot;color: light-dark(rgb(212, 212, 212), rgb(255, 255, 255));&quot;&gt;other_region_sales_million&lt;/font&gt;&lt;/div&gt;" style="shape=partialRectangle;connectable=0;fillColor=none;top=0;left=0;bottom=0;right=0;align=left;spacingLeft=6;overflow=hidden;whiteSpace=wrap;html=1;labelBackgroundColor=none;strokeColor=#BAC8D3;fontColor=#182E3E;" vertex="1" parent="lRlk0zMDoxLpAcyGvHk4-55">
          <mxGeometry x="30" width="226" height="30" as="geometry">
            <mxRectangle width="226" height="30" as="alternateBounds" />
          </mxGeometry>
        </mxCell>
        <mxCell id="lRlk0zMDoxLpAcyGvHk4-58" style="shape=tableRow;horizontal=0;startSize=0;swimlaneHead=0;swimlaneBody=0;fillColor=none;collapsible=0;dropTarget=0;points=[[0,0.5],[1,0.5]];portConstraint=eastwest;top=0;left=0;right=0;bottom=0;labelBackgroundColor=none;strokeColor=#BAC8D3;fontColor=#182E3E;" vertex="1" parent="lRlk0zMDoxLpAcyGvHk4-14">
          <mxGeometry y="330" width="256" height="30" as="geometry" />
        </mxCell>
        <mxCell id="lRlk0zMDoxLpAcyGvHk4-59" style="shape=partialRectangle;connectable=0;fillColor=none;top=0;left=0;bottom=0;right=0;editable=1;overflow=hidden;whiteSpace=wrap;html=1;labelBackgroundColor=none;strokeColor=#BAC8D3;fontColor=#182E3E;" vertex="1" parent="lRlk0zMDoxLpAcyGvHk4-58">
          <mxGeometry width="30" height="30" as="geometry">
            <mxRectangle width="30" height="30" as="alternateBounds" />
          </mxGeometry>
        </mxCell>
        <mxCell id="lRlk0zMDoxLpAcyGvHk4-60" value="&lt;div style=&quot;font-family: Consolas, &amp;quot;Courier New&amp;quot;, monospace; font-size: 14px; line-height: 19px; white-space: pre;&quot;&gt;&lt;font style=&quot;color: light-dark(rgb(212, 212, 212), rgb(255, 255, 255));&quot;&gt;global_sales_million&lt;/font&gt;&lt;/div&gt;" style="shape=partialRectangle;connectable=0;fillColor=none;top=0;left=0;bottom=0;right=0;align=left;spacingLeft=6;overflow=hidden;whiteSpace=wrap;html=1;labelBackgroundColor=none;strokeColor=#BAC8D3;fontColor=#182E3E;" vertex="1" parent="lRlk0zMDoxLpAcyGvHk4-58">
          <mxGeometry x="30" width="226" height="30" as="geometry">
            <mxRectangle width="226" height="30" as="alternateBounds" />
          </mxGeometry>
        </mxCell>
        <mxCell id="lRlk0zMDoxLpAcyGvHk4-61" value="Dim_Game" style="shape=table;startSize=30;container=1;collapsible=1;childLayout=tableLayout;fixedRows=1;rowLines=0;fontStyle=1;align=center;resizeLast=1;html=1;labelBackgroundColor=none;fillColor=#B1DDF0;strokeColor=#BAC8D3;fontColor=#182E3E;" vertex="1" parent="1">
          <mxGeometry x="157" y="50" width="122" height="90" as="geometry" />
        </mxCell>
        <mxCell id="lRlk0zMDoxLpAcyGvHk4-62" value="" style="shape=tableRow;horizontal=0;startSize=0;swimlaneHead=0;swimlaneBody=0;fillColor=none;collapsible=0;dropTarget=0;points=[[0,0.5],[1,0.5]];portConstraint=eastwest;top=0;left=0;right=0;bottom=1;labelBackgroundColor=none;strokeColor=#BAC8D3;fontColor=#182E3E;" vertex="1" parent="lRlk0zMDoxLpAcyGvHk4-61">
          <mxGeometry y="30" width="122" height="30" as="geometry" />
        </mxCell>
        <mxCell id="lRlk0zMDoxLpAcyGvHk4-63" value="PK" style="shape=partialRectangle;connectable=0;fillColor=none;top=0;left=0;bottom=0;right=0;fontStyle=1;overflow=hidden;whiteSpace=wrap;html=1;labelBackgroundColor=none;strokeColor=#BAC8D3;fontColor=#182E3E;" vertex="1" parent="lRlk0zMDoxLpAcyGvHk4-62">
          <mxGeometry width="30" height="30" as="geometry">
            <mxRectangle width="30" height="30" as="alternateBounds" />
          </mxGeometry>
        </mxCell>
        <mxCell id="lRlk0zMDoxLpAcyGvHk4-64" value="game_id" style="shape=partialRectangle;connectable=0;fillColor=none;top=0;left=0;bottom=0;right=0;align=left;spacingLeft=6;fontStyle=5;overflow=hidden;whiteSpace=wrap;html=1;labelBackgroundColor=none;strokeColor=#BAC8D3;fontColor=#182E3E;" vertex="1" parent="lRlk0zMDoxLpAcyGvHk4-62">
          <mxGeometry x="30" width="92" height="30" as="geometry">
            <mxRectangle width="92" height="30" as="alternateBounds" />
          </mxGeometry>
        </mxCell>
        <mxCell id="lRlk0zMDoxLpAcyGvHk4-65" value="" style="shape=tableRow;horizontal=0;startSize=0;swimlaneHead=0;swimlaneBody=0;fillColor=none;collapsible=0;dropTarget=0;points=[[0,0.5],[1,0.5]];portConstraint=eastwest;top=0;left=0;right=0;bottom=0;labelBackgroundColor=none;strokeColor=#BAC8D3;fontColor=#182E3E;" vertex="1" parent="lRlk0zMDoxLpAcyGvHk4-61">
          <mxGeometry y="60" width="122" height="30" as="geometry" />
        </mxCell>
        <mxCell id="lRlk0zMDoxLpAcyGvHk4-66" value="" style="shape=partialRectangle;connectable=0;fillColor=none;top=0;left=0;bottom=0;right=0;editable=1;overflow=hidden;whiteSpace=wrap;html=1;labelBackgroundColor=none;strokeColor=#BAC8D3;fontColor=#182E3E;" vertex="1" parent="lRlk0zMDoxLpAcyGvHk4-65">
          <mxGeometry width="30" height="30" as="geometry">
            <mxRectangle width="30" height="30" as="alternateBounds" />
          </mxGeometry>
        </mxCell>
        <mxCell id="lRlk0zMDoxLpAcyGvHk4-67" value="game_name" style="shape=partialRectangle;connectable=0;fillColor=none;top=0;left=0;bottom=0;right=0;align=left;spacingLeft=6;overflow=hidden;whiteSpace=wrap;html=1;labelBackgroundColor=none;strokeColor=#BAC8D3;fontColor=#182E3E;" vertex="1" parent="lRlk0zMDoxLpAcyGvHk4-65">
          <mxGeometry x="30" width="92" height="30" as="geometry">
            <mxRectangle width="92" height="30" as="alternateBounds" />
          </mxGeometry>
        </mxCell>
        <mxCell id="lRlk0zMDoxLpAcyGvHk4-95" value="Dim_Genre" style="shape=table;startSize=30;container=1;collapsible=1;childLayout=tableLayout;fixedRows=1;rowLines=0;fontStyle=1;align=center;resizeLast=1;html=1;labelBackgroundColor=none;fillColor=#B1DDF0;strokeColor=#BAC8D3;fontColor=#182E3E;" vertex="1" parent="1">
          <mxGeometry x="630" y="169" width="125" height="90" as="geometry" />
        </mxCell>
        <mxCell id="lRlk0zMDoxLpAcyGvHk4-96" value="" style="shape=tableRow;horizontal=0;startSize=0;swimlaneHead=0;swimlaneBody=0;fillColor=none;collapsible=0;dropTarget=0;points=[[0,0.5],[1,0.5]];portConstraint=eastwest;top=0;left=0;right=0;bottom=1;labelBackgroundColor=none;strokeColor=#BAC8D3;fontColor=#182E3E;" vertex="1" parent="lRlk0zMDoxLpAcyGvHk4-95">
          <mxGeometry y="30" width="125" height="30" as="geometry" />
        </mxCell>
        <mxCell id="lRlk0zMDoxLpAcyGvHk4-97" value="PK" style="shape=partialRectangle;connectable=0;fillColor=none;top=0;left=0;bottom=0;right=0;fontStyle=1;overflow=hidden;whiteSpace=wrap;html=1;labelBackgroundColor=none;strokeColor=#BAC8D3;fontColor=#182E3E;" vertex="1" parent="lRlk0zMDoxLpAcyGvHk4-96">
          <mxGeometry width="30" height="30" as="geometry">
            <mxRectangle width="30" height="30" as="alternateBounds" />
          </mxGeometry>
        </mxCell>
        <mxCell id="lRlk0zMDoxLpAcyGvHk4-98" value="genre_id" style="shape=partialRectangle;connectable=0;fillColor=none;top=0;left=0;bottom=0;right=0;align=left;spacingLeft=6;fontStyle=5;overflow=hidden;whiteSpace=wrap;html=1;labelBackgroundColor=none;strokeColor=#BAC8D3;fontColor=#182E3E;" vertex="1" parent="lRlk0zMDoxLpAcyGvHk4-96">
          <mxGeometry x="30" width="95" height="30" as="geometry">
            <mxRectangle width="95" height="30" as="alternateBounds" />
          </mxGeometry>
        </mxCell>
        <mxCell id="lRlk0zMDoxLpAcyGvHk4-99" value="" style="shape=tableRow;horizontal=0;startSize=0;swimlaneHead=0;swimlaneBody=0;fillColor=none;collapsible=0;dropTarget=0;points=[[0,0.5],[1,0.5]];portConstraint=eastwest;top=0;left=0;right=0;bottom=0;labelBackgroundColor=none;strokeColor=#BAC8D3;fontColor=#182E3E;" vertex="1" parent="lRlk0zMDoxLpAcyGvHk4-95">
          <mxGeometry y="60" width="125" height="30" as="geometry" />
        </mxCell>
        <mxCell id="lRlk0zMDoxLpAcyGvHk4-100" value="" style="shape=partialRectangle;connectable=0;fillColor=none;top=0;left=0;bottom=0;right=0;editable=1;overflow=hidden;whiteSpace=wrap;html=1;labelBackgroundColor=none;strokeColor=#BAC8D3;fontColor=#182E3E;" vertex="1" parent="lRlk0zMDoxLpAcyGvHk4-99">
          <mxGeometry width="30" height="30" as="geometry">
            <mxRectangle width="30" height="30" as="alternateBounds" />
          </mxGeometry>
        </mxCell>
        <mxCell id="lRlk0zMDoxLpAcyGvHk4-101" value="genre_name" style="shape=partialRectangle;connectable=0;fillColor=none;top=0;left=0;bottom=0;right=0;align=left;spacingLeft=6;overflow=hidden;whiteSpace=wrap;html=1;labelBackgroundColor=none;strokeColor=#BAC8D3;fontColor=#182E3E;" vertex="1" parent="lRlk0zMDoxLpAcyGvHk4-99">
          <mxGeometry x="30" width="95" height="30" as="geometry">
            <mxRectangle width="95" height="30" as="alternateBounds" />
          </mxGeometry>
        </mxCell>
        <mxCell id="lRlk0zMDoxLpAcyGvHk4-102" value="Dim_Platform" style="shape=table;startSize=30;container=1;collapsible=1;childLayout=tableLayout;fixedRows=1;rowLines=0;fontStyle=1;align=center;resizeLast=1;html=1;labelBackgroundColor=none;fillColor=#B1DDF0;strokeColor=#BAC8D3;fontColor=#182E3E;" vertex="1" parent="1">
          <mxGeometry x="157" y="159" width="123" height="90" as="geometry" />
        </mxCell>
        <mxCell id="lRlk0zMDoxLpAcyGvHk4-103" value="" style="shape=tableRow;horizontal=0;startSize=0;swimlaneHead=0;swimlaneBody=0;fillColor=none;collapsible=0;dropTarget=0;points=[[0,0.5],[1,0.5]];portConstraint=eastwest;top=0;left=0;right=0;bottom=1;labelBackgroundColor=none;strokeColor=#BAC8D3;fontColor=#182E3E;" vertex="1" parent="lRlk0zMDoxLpAcyGvHk4-102">
          <mxGeometry y="30" width="123" height="30" as="geometry" />
        </mxCell>
        <mxCell id="lRlk0zMDoxLpAcyGvHk4-104" value="PK" style="shape=partialRectangle;connectable=0;fillColor=none;top=0;left=0;bottom=0;right=0;fontStyle=1;overflow=hidden;whiteSpace=wrap;html=1;labelBackgroundColor=none;strokeColor=#BAC8D3;fontColor=#182E3E;" vertex="1" parent="lRlk0zMDoxLpAcyGvHk4-103">
          <mxGeometry width="30" height="30" as="geometry">
            <mxRectangle width="30" height="30" as="alternateBounds" />
          </mxGeometry>
        </mxCell>
        <mxCell id="lRlk0zMDoxLpAcyGvHk4-105" value="platform_id" style="shape=partialRectangle;connectable=0;fillColor=none;top=0;left=0;bottom=0;right=0;align=left;spacingLeft=6;fontStyle=5;overflow=hidden;whiteSpace=wrap;html=1;labelBackgroundColor=none;strokeColor=#BAC8D3;fontColor=#182E3E;" vertex="1" parent="lRlk0zMDoxLpAcyGvHk4-103">
          <mxGeometry x="30" width="93" height="30" as="geometry">
            <mxRectangle width="93" height="30" as="alternateBounds" />
          </mxGeometry>
        </mxCell>
        <mxCell id="lRlk0zMDoxLpAcyGvHk4-106" value="" style="shape=tableRow;horizontal=0;startSize=0;swimlaneHead=0;swimlaneBody=0;fillColor=none;collapsible=0;dropTarget=0;points=[[0,0.5],[1,0.5]];portConstraint=eastwest;top=0;left=0;right=0;bottom=0;labelBackgroundColor=none;strokeColor=#BAC8D3;fontColor=#182E3E;" vertex="1" parent="lRlk0zMDoxLpAcyGvHk4-102">
          <mxGeometry y="60" width="123" height="30" as="geometry" />
        </mxCell>
        <mxCell id="lRlk0zMDoxLpAcyGvHk4-107" value="" style="shape=partialRectangle;connectable=0;fillColor=none;top=0;left=0;bottom=0;right=0;editable=1;overflow=hidden;whiteSpace=wrap;html=1;labelBackgroundColor=none;strokeColor=#BAC8D3;fontColor=#182E3E;" vertex="1" parent="lRlk0zMDoxLpAcyGvHk4-106">
          <mxGeometry width="30" height="30" as="geometry">
            <mxRectangle width="30" height="30" as="alternateBounds" />
          </mxGeometry>
        </mxCell>
        <mxCell id="lRlk0zMDoxLpAcyGvHk4-108" value="platform_name" style="shape=partialRectangle;connectable=0;fillColor=none;top=0;left=0;bottom=0;right=0;align=left;spacingLeft=6;overflow=hidden;whiteSpace=wrap;html=1;labelBackgroundColor=none;strokeColor=#BAC8D3;fontColor=#182E3E;" vertex="1" parent="lRlk0zMDoxLpAcyGvHk4-106">
          <mxGeometry x="30" width="93" height="30" as="geometry">
            <mxRectangle width="93" height="30" as="alternateBounds" />
          </mxGeometry>
        </mxCell>
        <mxCell id="lRlk0zMDoxLpAcyGvHk4-109" value="Dim_Publisher" style="shape=table;startSize=30;container=1;collapsible=1;childLayout=tableLayout;fixedRows=1;rowLines=0;fontStyle=1;align=center;resizeLast=1;html=1;labelBackgroundColor=none;fillColor=#B1DDF0;strokeColor=#BAC8D3;fontColor=#182E3E;" vertex="1" parent="1">
          <mxGeometry x="629" y="273" width="125" height="90" as="geometry" />
        </mxCell>
        <mxCell id="lRlk0zMDoxLpAcyGvHk4-110" value="" style="shape=tableRow;horizontal=0;startSize=0;swimlaneHead=0;swimlaneBody=0;fillColor=none;collapsible=0;dropTarget=0;points=[[0,0.5],[1,0.5]];portConstraint=eastwest;top=0;left=0;right=0;bottom=1;labelBackgroundColor=none;strokeColor=#BAC8D3;fontColor=#182E3E;" vertex="1" parent="lRlk0zMDoxLpAcyGvHk4-109">
          <mxGeometry y="30" width="125" height="30" as="geometry" />
        </mxCell>
        <mxCell id="lRlk0zMDoxLpAcyGvHk4-111" value="PK" style="shape=partialRectangle;connectable=0;fillColor=none;top=0;left=0;bottom=0;right=0;fontStyle=1;overflow=hidden;whiteSpace=wrap;html=1;labelBackgroundColor=none;strokeColor=#BAC8D3;fontColor=#182E3E;" vertex="1" parent="lRlk0zMDoxLpAcyGvHk4-110">
          <mxGeometry width="30" height="30" as="geometry">
            <mxRectangle width="30" height="30" as="alternateBounds" />
          </mxGeometry>
        </mxCell>
        <mxCell id="lRlk0zMDoxLpAcyGvHk4-112" value="publisher_id" style="shape=partialRectangle;connectable=0;fillColor=none;top=0;left=0;bottom=0;right=0;align=left;spacingLeft=6;fontStyle=5;overflow=hidden;whiteSpace=wrap;html=1;labelBackgroundColor=none;strokeColor=#BAC8D3;fontColor=#182E3E;" vertex="1" parent="lRlk0zMDoxLpAcyGvHk4-110">
          <mxGeometry x="30" width="95" height="30" as="geometry">
            <mxRectangle width="95" height="30" as="alternateBounds" />
          </mxGeometry>
        </mxCell>
        <mxCell id="lRlk0zMDoxLpAcyGvHk4-113" value="" style="shape=tableRow;horizontal=0;startSize=0;swimlaneHead=0;swimlaneBody=0;fillColor=none;collapsible=0;dropTarget=0;points=[[0,0.5],[1,0.5]];portConstraint=eastwest;top=0;left=0;right=0;bottom=0;labelBackgroundColor=none;strokeColor=#BAC8D3;fontColor=#182E3E;" vertex="1" parent="lRlk0zMDoxLpAcyGvHk4-109">
          <mxGeometry y="60" width="125" height="30" as="geometry" />
        </mxCell>
        <mxCell id="lRlk0zMDoxLpAcyGvHk4-114" value="" style="shape=partialRectangle;connectable=0;fillColor=none;top=0;left=0;bottom=0;right=0;editable=1;overflow=hidden;whiteSpace=wrap;html=1;labelBackgroundColor=none;strokeColor=#BAC8D3;fontColor=#182E3E;" vertex="1" parent="lRlk0zMDoxLpAcyGvHk4-113">
          <mxGeometry width="30" height="30" as="geometry">
            <mxRectangle width="30" height="30" as="alternateBounds" />
          </mxGeometry>
        </mxCell>
        <mxCell id="lRlk0zMDoxLpAcyGvHk4-115" value="publisher_name" style="shape=partialRectangle;connectable=0;fillColor=none;top=0;left=0;bottom=0;right=0;align=left;spacingLeft=6;overflow=hidden;whiteSpace=wrap;html=1;labelBackgroundColor=none;strokeColor=#BAC8D3;fontColor=#182E3E;" vertex="1" parent="lRlk0zMDoxLpAcyGvHk4-113">
          <mxGeometry x="30" width="95" height="30" as="geometry">
            <mxRectangle width="95" height="30" as="alternateBounds" />
          </mxGeometry>
        </mxCell>
        <mxCell id="lRlk0zMDoxLpAcyGvHk4-116" value="Dim_Year" style="shape=table;startSize=30;container=1;collapsible=1;childLayout=tableLayout;fixedRows=1;rowLines=0;fontStyle=1;align=center;resizeLast=1;html=1;labelBackgroundColor=none;fillColor=#B1DDF0;strokeColor=#BAC8D3;fontColor=#182E3E;" vertex="1" parent="1">
          <mxGeometry x="629" y="62" width="123" height="90" as="geometry" />
        </mxCell>
        <mxCell id="lRlk0zMDoxLpAcyGvHk4-117" value="" style="shape=tableRow;horizontal=0;startSize=0;swimlaneHead=0;swimlaneBody=0;fillColor=none;collapsible=0;dropTarget=0;points=[[0,0.5],[1,0.5]];portConstraint=eastwest;top=0;left=0;right=0;bottom=1;labelBackgroundColor=none;strokeColor=#BAC8D3;fontColor=#182E3E;" vertex="1" parent="lRlk0zMDoxLpAcyGvHk4-116">
          <mxGeometry y="30" width="123" height="30" as="geometry" />
        </mxCell>
        <mxCell id="lRlk0zMDoxLpAcyGvHk4-118" value="PK" style="shape=partialRectangle;connectable=0;fillColor=none;top=0;left=0;bottom=0;right=0;fontStyle=1;overflow=hidden;whiteSpace=wrap;html=1;labelBackgroundColor=none;strokeColor=#BAC8D3;fontColor=#182E3E;" vertex="1" parent="lRlk0zMDoxLpAcyGvHk4-117">
          <mxGeometry width="30" height="30" as="geometry">
            <mxRectangle width="30" height="30" as="alternateBounds" />
          </mxGeometry>
        </mxCell>
        <mxCell id="lRlk0zMDoxLpAcyGvHk4-119" value="year_id" style="shape=partialRectangle;connectable=0;fillColor=none;top=0;left=0;bottom=0;right=0;align=left;spacingLeft=6;fontStyle=5;overflow=hidden;whiteSpace=wrap;html=1;labelBackgroundColor=none;strokeColor=#BAC8D3;fontColor=#182E3E;" vertex="1" parent="lRlk0zMDoxLpAcyGvHk4-117">
          <mxGeometry x="30" width="93" height="30" as="geometry">
            <mxRectangle width="93" height="30" as="alternateBounds" />
          </mxGeometry>
        </mxCell>
        <mxCell id="lRlk0zMDoxLpAcyGvHk4-120" value="" style="shape=tableRow;horizontal=0;startSize=0;swimlaneHead=0;swimlaneBody=0;fillColor=none;collapsible=0;dropTarget=0;points=[[0,0.5],[1,0.5]];portConstraint=eastwest;top=0;left=0;right=0;bottom=0;labelBackgroundColor=none;strokeColor=#BAC8D3;fontColor=#182E3E;" vertex="1" parent="lRlk0zMDoxLpAcyGvHk4-116">
          <mxGeometry y="60" width="123" height="30" as="geometry" />
        </mxCell>
        <mxCell id="lRlk0zMDoxLpAcyGvHk4-121" value="" style="shape=partialRectangle;connectable=0;fillColor=none;top=0;left=0;bottom=0;right=0;editable=1;overflow=hidden;whiteSpace=wrap;html=1;labelBackgroundColor=none;strokeColor=#BAC8D3;fontColor=#182E3E;" vertex="1" parent="lRlk0zMDoxLpAcyGvHk4-120">
          <mxGeometry width="30" height="30" as="geometry">
            <mxRectangle width="30" height="30" as="alternateBounds" />
          </mxGeometry>
        </mxCell>
        <mxCell id="lRlk0zMDoxLpAcyGvHk4-122" value="release_year" style="shape=partialRectangle;connectable=0;fillColor=none;top=0;left=0;bottom=0;right=0;align=left;spacingLeft=6;overflow=hidden;whiteSpace=wrap;html=1;labelBackgroundColor=none;strokeColor=#BAC8D3;fontColor=#182E3E;" vertex="1" parent="lRlk0zMDoxLpAcyGvHk4-120">
          <mxGeometry x="30" width="93" height="30" as="geometry">
            <mxRectangle width="93" height="30" as="alternateBounds" />
          </mxGeometry>
        </mxCell>
        <mxCell id="lRlk0zMDoxLpAcyGvHk4-123" style="edgeStyle=orthogonalEdgeStyle;rounded=0;orthogonalLoop=1;jettySize=auto;html=1;labelBackgroundColor=none;fontColor=default;strokeColor=#006EAF;fillColor=#1ba1e2;" edge="1" parent="1" source="lRlk0zMDoxLpAcyGvHk4-110" target="lRlk0zMDoxLpAcyGvHk4-43">
          <mxGeometry relative="1" as="geometry" />
        </mxCell>
        <mxCell id="lRlk0zMDoxLpAcyGvHk4-124" style="edgeStyle=orthogonalEdgeStyle;rounded=0;orthogonalLoop=1;jettySize=auto;html=1;entryX=1;entryY=0.5;entryDx=0;entryDy=0;labelBackgroundColor=none;fontColor=default;strokeColor=#006EAF;fillColor=#1ba1e2;" edge="1" parent="1" source="lRlk0zMDoxLpAcyGvHk4-96" target="lRlk0zMDoxLpAcyGvHk4-40">
          <mxGeometry relative="1" as="geometry" />
        </mxCell>
        <mxCell id="lRlk0zMDoxLpAcyGvHk4-125" style="edgeStyle=orthogonalEdgeStyle;rounded=0;orthogonalLoop=1;jettySize=auto;html=1;entryX=1;entryY=0.5;entryDx=0;entryDy=0;labelBackgroundColor=none;fontColor=light-dark(#FFFFFF,#FFFFFF);fillColor=#1ba1e2;strokeColor=#006EAF;" edge="1" parent="1" source="lRlk0zMDoxLpAcyGvHk4-117" target="lRlk0zMDoxLpAcyGvHk4-24">
          <mxGeometry relative="1" as="geometry" />
        </mxCell>
        <mxCell id="lRlk0zMDoxLpAcyGvHk4-126" style="edgeStyle=orthogonalEdgeStyle;rounded=0;orthogonalLoop=1;jettySize=auto;html=1;entryX=0;entryY=0.5;entryDx=0;entryDy=0;labelBackgroundColor=none;fontColor=default;strokeColor=#006EAF;fillColor=#1ba1e2;" edge="1" parent="1" source="lRlk0zMDoxLpAcyGvHk4-62" target="lRlk0zMDoxLpAcyGvHk4-18">
          <mxGeometry relative="1" as="geometry" />
        </mxCell>
        <mxCell id="lRlk0zMDoxLpAcyGvHk4-127" style="edgeStyle=orthogonalEdgeStyle;rounded=0;orthogonalLoop=1;jettySize=auto;html=1;entryX=0;entryY=0.5;entryDx=0;entryDy=0;labelBackgroundColor=none;fontColor=default;strokeColor=#006EAF;fillColor=#1ba1e2;" edge="1" parent="1" source="lRlk0zMDoxLpAcyGvHk4-103" target="lRlk0zMDoxLpAcyGvHk4-21">
          <mxGeometry relative="1" as="geometry" />
        </mxCell>
      </root>
    </mxGraphModel>
  </diagram>
</mxfile>
